<?xml version="1.0" standalone="no"?>
<!DOCTYPE svg PUBLIC "-//W3C//DTD SVG 20010904//EN"
 "http://www.w3.org/TR/2001/REC-SVG-20010904/DTD/svg10.dtd">
<svg version="1.0" xmlns="http://www.w3.org/2000/svg"
 width="500.000000pt" height="500.000000pt" viewBox="0 0 500.000000 500.000000"
 preserveAspectRatio="xMidYMid meet">
<metadata>
Created by potrace 1.14, written by Peter Selinger 2001-2017
</metadata>
<g transform="translate(0.000000,500.000000) scale(0.100000,-0.100000)"
fill="#000000" stroke="none">
<path d="M1010 2305 l0 -1375 1375 0 1375 0 0 1375 0 1375 -1375 0 -1375 0 0
-1375z m1348 613 c15 -15 17 -241 2 -268 -6 -11 -17 -17 -25 -14 -12 5 -15 27
-15 106 0 55 -5 108 -10 119 -10 18 -23 19 -235 19 l-225 0 0 -235 0 -236 158
3 157 3 10 74 c10 70 27 100 44 73 5 -8 7 -329 2 -364 -1 -5 -7 -8 -15 -8 -16
0 -21 14 -31 83 -11 82 -22 87 -185 87 l-140 0 0 -250 0 -250 245 0 c224 0
245 1 254 18 5 10 15 90 21 177 6 88 15 164 20 169 17 17 40 -3 40 -33 0 -79
-22 -339 -30 -358 l-10 -23 -381 0 c-357 0 -380 1 -377 18 3 13 17 18 70 22
37 3 72 10 78 16 8 8 10 151 8 497 -3 432 -5 488 -19 502 -10 10 -41 19 -78
22 -56 5 -74 17 -54 36 3 4 164 7 358 7 260 0 354 -3 363 -12z m787 -8 c0 -11
-15 -16 -56 -20 -94 -8 -88 25 -91 -448 -3 -412 -3 -418 -27 -476 -50 -124
-142 -182 -276 -174 -136 9 -215 85 -215 209 0 66 28 113 76 129 64 22 110
-33 63 -75 -17 -16 -25 -17 -50 -8 -28 11 -31 10 -40 -15 -37 -95 56 -192 182
-192 69 0 104 12 142 48 79 74 87 131 87 598 0 438 8 404 -94 404 -30 0 -58 5
-61 10 -16 26 12 30 183 28 149 -3 177 -5 177 -18z"/>
</g>
</svg>
